<?xml version="1.0" encoding="UTF-8" standalone="no"?>
<!DOCTYPE svg PUBLIC "-//W3C//DTD SVG 1.1//EN" "http://www.w3.org/Graphics/SVG/1.1/DTD/svg11.dtd">
<svg width="100%" height="100%" viewBox="0 0 2048 1024" version="1.1" xmlns="http://www.w3.org/2000/svg" xmlns:xlink="http://www.w3.org/1999/xlink" xml:space="preserve" xmlns:serif="http://www.serif.com/" style="fill-rule:evenodd;clip-rule:evenodd;stroke-linejoin:round;stroke-miterlimit:2;">
    <g transform="matrix(269.002,0,0,269.002,504,321.752)">
        <path d="M0.081,-0.573L-0.212,-0.724L0.703,-0.724C0.689,-0.648 0.521,-0.407 0.487,-0.354C0.516,-0.316 0.757,0.164 0.757,0.164C0.722,0.139 0.402,-0.226 0.372,-0.267C0.332,-0.219 -0.204,0.15 -0.204,0.15C-0.204,0.15 0.401,-0.491 0.435,-0.573L0.081,-0.573Z" style="fill-rule:nonzero;"/>
    </g>
    <g transform="matrix(269.002,0,0,269.002,699.184,321.752)">
        <path d="M0.093,-0.302L0.093,-0.76L0.244,-0.76L0.244,-0.302L0.093,-0.302ZM0.233,0.06C0.233,0.06 0.452,-0.265 0.453,-0.319L0.475,-0.76L0.626,-0.76L0.579,-0.28C0.579,-0.198 0.235,0.06 0.233,0.06Z" style="fill-rule:nonzero;"/>
    </g>
    <g transform="matrix(269.002,0,0,269.002,893.843,321.752)">
        <path d="M0.053,-0.49L0.053,-0.642L0.357,-0.642L0.357,-0.49L0.053,-0.49ZM0.703,-0.56C0.671,-0.44 0.461,-0.136 0.402,-0.095C0.343,-0.055 0.054,0.025 0.054,0.024L0.054,-0.135C0.054,-0.134 0.277,-0.19 0.322,-0.224C0.363,-0.254 0.703,-0.56 0.703,-0.56Z" style="fill-rule:nonzero;"/>
    </g>
    <g transform="matrix(269.002,0,0,269.002,1094.54,321.752)">
        <path d="M0.563,-0.711L0.496,-0.852L0.563,-0.852L0.563,-0.711ZM0.669,-0.711L0.602,-0.852L0.669,-0.852L0.669,-0.711ZM0.366,-0.771C0.364,-0.753 0.349,-0.686 0.345,-0.67L0.666,-0.67C0.666,-0.67 0.544,-0.178 0.502,-0.137C0.46,-0.095 0.121,0.063 0.12,0.063C0.12,0.063 0.349,-0.186 0.388,-0.222C0.428,-0.258 0.469,-0.458 0.478,-0.531L0.285,-0.524C0.247,-0.466 0.049,-0.277 0.048,-0.277C0.048,-0.277 0.202,-0.719 0.212,-0.771L0.366,-0.771Z" style="fill-rule:nonzero;"/>
    </g>
    <g transform="matrix(269.002,0,0,269.002,446.085,599.361)">
        <path d="M0.1,-0.797L0.282,-0.797L0.249,-0.607L0.654,-0.592L0.655,-0.464L0.226,-0.444L0.2,-0.243C0.202,-0.218 0.665,-0.109 0.665,-0.109C0.614,-0.103 0.033,-0.077 0.029,-0.152L0.1,-0.797Z" style="fill-rule:nonzero;"/>
    </g>
    <g transform="matrix(269.002,0,0,269.002,636.541,599.361)">
        <rect x="0.049" y="-0.444" width="0.451" height="0.153" style="fill-rule:nonzero;"/>
    </g>
    <g transform="matrix(269.002,0,0,269.002,783.651,599.361)">
        <path d="M0.53,-0.561L0.235,-0.561L0.235,-0.152L0.53,-0.152L0.53,-0.561ZM0.69,0.001L0.076,0.001L0.076,-0.714L0.69,-0.714L0.69,0.001Z" style="fill-rule:nonzero;"/>
    </g>
    <g transform="matrix(269.002,0,0,269.002,990.919,599.361)">
        <rect x="0.049" y="-0.444" width="0.451" height="0.153" style="fill-rule:nonzero;"/>
    </g>
    <g transform="matrix(269.002,0,0,269.002,1138.03,599.361)">
        <path d="M0.774,-0.656L0.707,-0.797L0.774,-0.797L0.774,-0.656ZM0.234,-0.561L-0.047,-0.714L0.628,-0.726L0.602,-0.797L0.669,-0.797L0.662,-0.656L0.636,-0.714L0.626,-0.656C0.614,-0.609 0.52,-0.398 0.486,-0.346C0.516,-0.307 0.682,0.047 0.682,0.047C0.646,0.021 0.43,-0.187 0.399,-0.228C0.36,-0.179 -0.046,0.084 -0.047,0.084C-0.047,0.084 0.401,-0.491 0.435,-0.573L0.234,-0.561Z" style="fill-rule:nonzero;"/>
    </g>
</svg>
