<?xml version="1.0" encoding="UTF-8" standalone="no"?>
<!-- Created with Inkscape (http://www.inkscape.org/) -->

<svg
   xmlns:dc="http://purl.org/dc/elements/1.1/"
   xmlns:cc="http://creativecommons.org/ns#"
   xmlns:rdf="http://www.w3.org/1999/02/22-rdf-syntax-ns#"
   xmlns:svg="http://www.w3.org/2000/svg"
   xmlns="http://www.w3.org/2000/svg"
   xmlns:sodipodi="http://sodipodi.sourceforge.net/DTD/sodipodi-0.dtd"
   xmlns:inkscape="http://www.inkscape.org/namespaces/inkscape"
   width="210mm"
   height="297mm"
   viewBox="0 0 210 297"
   version="1.1"
   id="svg8"
   inkscape:version="0.92.1 r15371"
   sodipodi:docname="描画.svg">
  <defs
     id="defs2">
    <inkscape:path-effect
       effect="envelope"
       id="path-effect4672"
       is_visible="true"
       yy="true"
       xx="true"
       bendpath1="M -2.7536163,-0.82592703 0.99259087,-1.212332"
       bendpath2="M 0.81930735,-1.278826 1.346731,0.0705423"
       bendpath3="M -2.4171123,-0.47816443 1.433809,-0.15836186"
       bendpath4="m -2.6149115,-1.0650055 0.4663027,0.78725755"
       bendpath1-nodetypes="cc"
       bendpath3-nodetypes="cc"
       bendpath4-nodetypes="cc"
       bendpath2-nodetypes="cc" />
    <inkscape:path-effect
       effect="envelope"
       id="path-effect4658"
       is_visible="true"
       yy="true"
       xx="true"
       bendpath1="M -2.5432672,-0.797 H 0.774"
       bendpath2="M 0.774,-0.797 V 0.084"
       bendpath3="M -2.5432672,0.084 H 0.774"
       bendpath4="M -2.5432672,-0.797 V 0.084" />
    <inkscape:path-effect
       effect="envelope"
       id="path-effect4643"
       is_visible="true"
       yy="true"
       xx="true"
       bendpath1="M 14.772094,122.49886 H 201.3642"
       bendpath2="M 201.3642,122.49886 V 172.054"
       bendpath3="M 14.772094,172.054 H 201.3642"
       bendpath4="M 14.772094,122.49886 V 172.054" />
    <inkscape:path-effect
       effect="envelope"
       id="path-effect4602"
       is_visible="true"
       yy="true"
       xx="true"
       bendpath1="M 14.772094,122.49886 H 201.3642"
       bendpath2="M 201.3642,122.49886 V 172.054"
       bendpath3="M 14.772094,172.054 H 201.3642"
       bendpath4="M 17.17752,129.71514 14.772094,172.054"
       bendpath4-nodetypes="cc" />
    <inkscape:path-effect
       effect="envelope"
       id="path-effect4600"
       is_visible="true"
       yy="true"
       xx="true"
       bendpath1="M 13.326265,61.356703 189.57148,40.50968"
       bendpath2="M 199.19319,39.707871 181.5534,119.30723"
       bendpath3="M -22.755121,100.06382 150.28286,115.29819"
       bendpath4="M 13.326265,61.356703 -2.7099067,117.70361"
       bendpath1-nodetypes="cc"
       bendpath3-nodetypes="cc"
       bendpath2-nodetypes="cc"
       bendpath4-nodetypes="cc" />
  </defs>
  <sodipodi:namedview
     id="base"
     pagecolor="#ffffff"
     bordercolor="#666666"
     borderopacity="1.0"
     inkscape:pageopacity="0.0"
     inkscape:pageshadow="2"
     inkscape:zoom="0.98994949"
     inkscape:cx="390.6739"
     inkscape:cy="596.14929"
     inkscape:document-units="mm"
     inkscape:current-layer="layer1"
     showgrid="false"
     inkscape:window-width="1920"
     inkscape:window-height="1017"
     inkscape:window-x="-8"
     inkscape:window-y="-8"
     inkscape:window-maximized="1" />
  <metadata
     id="metadata5">
    <rdf:RDF>
      <cc:Work
         rdf:about="">
        <dc:format>image/svg+xml</dc:format>
        <dc:type
           rdf:resource="http://purl.org/dc/dcmitype/StillImage" />
        <dc:title></dc:title>
      </cc:Work>
    </rdf:RDF>
  </metadata>
  <g
     inkscape:label="レイヤー 1"
     inkscape:groupmode="layer"
     id="layer1">
    <g
       id="g4586"
       inkscape:path-effect="#path-effect4600"
       transform="translate(23.252449,3.2072343)">
      <g
         id="g4498"
         transform="matrix(56.248741,0,0,56.248741,25.250998,109.28063)"
         style="clip-rule:evenodd;fill-rule:evenodd;stroke-linejoin:round;stroke-miterlimit:2">
        <path
           id="path4496"
           style="fill-rule:nonzero"
           d="M 8.7542895e-4,-0.61457374 C -0.08231944,-0.65648758 -0.16921081,-0.69884918 -0.25397002,-0.73796874 c 0.29333434,-0.0252465 0.64581659,-0.0649033 0.93357649,-0.095647 -0.0189878,0.0380313 -0.0934456,0.12991808 -0.16663911,0.21381897 -0.0851119,0.0975629 -0.14089676,0.15301983 -0.17978151,0.19221086 0.002996,0.007995 0.009133,0.0451699 0.00982,0.0893411 7.1435e-4,0.0459463 -0.004445,0.097434 -0.0253314,0.14308463 -0.0214389,0.0468577 -0.0555213,0.0792766 -0.0967612,0.10284308 -0.0391468,0.02237038 -0.0757816,0.03222979 -0.0757816,0.03222979 0.002182,-0.0023748 0.0229993,-0.01236018 0.0412909,-0.03032738 0.0193042,-0.01896187 0.0323426,-0.04325401 0.035105,-0.07647289 0.00539,-0.0648176 -0.0328736,-0.14806 -0.0384809,-0.16774803 -0.0341343,0.0266778 -0.21456801,0.12909707 -0.41742105,0.20641244 -0.10338064,0.03940247 -0.19765754,0.0673891 -0.2813777,0.08787489 -0.0795214,0.01945838 -0.1347161,0.02878222 -0.1347161,0.02878222 0,0 0.0804422,-0.01284277 0.1859747,-0.04845148 0.11245647,-0.03794499 0.22634732,-0.09292191 0.34851489,-0.17502403 0.11673667795,-0.0784523 0.22510488,-0.171299 0.31111973,-0.25028802 0.084349,-0.0774592 0.14886553,-0.14304237 0.16305264,-0.16378833 -0.0818164,0.007804 -0.27550142,0.0267401 -0.35731787105,0.0345441 z"
           inkscape:connector-curvature="0"
           inkscape:original-d="m 0.081,-0.573 -0.293,-0.151 h 0.915 c -0.014,0.076 -0.182,0.317 -0.216,0.37 0.029,0.038 0.27,0.518 0.27,0.518 -0.035,-0.025 -0.355,-0.39 -0.385,-0.431 -0.04,0.048 -0.576,0.417 -0.576,0.417 0,0 0.605,-0.641 0.639,-0.723 z" />
      </g>
      <g
         id="g4502"
         transform="matrix(56.248741,0,0,56.248741,66.064279,109.28063)"
         style="clip-rule:evenodd;fill-rule:evenodd;stroke-linejoin:round;stroke-miterlimit:2">
        <path
           id="path4500"
           style="fill-rule:nonzero"
           d="m -0.08670199,-0.39894117 c 0.06621241,-0.1340914 0.12423278,-0.34477244 0.17016241,-0.48446836 0.05120866,-0.005662 0.1020148,-0.0112294 0.15330798,-0.016781 -0.0458662,0.14484212 -0.10303051,0.35468805 -0.17204583,0.49329922 -0.05077522,0.002431 -0.10116533,0.005074 -0.15142456,0.00795 z m -0.15605465,0.29275129 c 0,0 0.0395465,-0.0112752 0.0945773,-0.0324682 0.05769481,-0.022219 0.12146455,-0.0514185 0.18741652,-0.0904817 0.12961256,-0.0767692 0.23131826,-0.17349726 0.24649118,-0.20444669 0.07359,-0.14147672 0.13627544,-0.34418159 0.18634571,-0.49154843 0.051527,-0.005341 0.10285561,-0.0105802 0.15465816,-0.0157864 -0.0607686,0.166438 -0.13603661,0.38952494 -0.2315359,0.5441278 -0.0240043,0.0459308 -0.16068504,0.12944419 -0.31766253,0.19255614 -0.15599296,0.0627161 -0.31580195,0.0981267 -0.32029043,0.0980475 z"
           inkscape:connector-curvature="0"
           inkscape:original-d="M 0.093,-0.302 V -0.76 h 0.151 v 0.458 z m 0.14,0.362 c 0,0 0.219,-0.325 0.22,-0.379 L 0.475,-0.76 h 0.151 l -0.047,0.48 c 0,0.082 -0.344,0.34 -0.346,0.34 z" />
      </g>
      <g
         id="g4506"
         transform="matrix(56.248741,0,0,56.248741,106.76778,109.28063)"
         style="clip-rule:evenodd;fill-rule:evenodd;stroke-linejoin:round;stroke-miterlimit:2">
        <path
           id="path4504"
           style="fill-rule:nonzero"
           d="m -0.02845394,-0.64014887 c 0.01822007,-0.05862 0.03519836,-0.12028787 0.05085217,-0.17905963 0.10722998,-0.008308 0.21111205,-0.01604 0.3207317,-0.0241174 -0.0143173,0.0613997 -0.03002,0.12544384 -0.0472917,0.18673605 -0.11091349,0.005435 -0.21636788,0.010677 -0.32429214,0.0164409 z m 0.72602061,-0.12556462 c -0.0348853,0.0803067 -0.13205047,0.21726949 -0.25418407,0.3355846 -0.12610543,0.12216275 -0.25804169,0.20308432 -0.31809105,0.22669313 -0.05306689,0.0205095 -0.1732563,0.0451891 -0.28879777,0.0639289 -0.11306777,0.0183386 -0.21293918,0.0297089 -0.21237865,0.0293442 0.0648161,-0.0421641 0.11628667,-0.0898635 0.15866665,-0.14135211 -0.003801,0.004617 0.28324159,-0.0546222 0.35158303,-0.0910521 0.0469798,-0.024488 0.17283096,-0.10274451 0.31699823,-0.21513374 0.13164442,-0.10262673 0.24620363,-0.20801299 0.24620363,-0.20801299 z"
           inkscape:connector-curvature="0"
           inkscape:original-d="m 0.053,-0.49 v -0.152 h 0.304 v 0.152 z m 0.65,-0.07 c -0.032,0.12 -0.242,0.424 -0.301,0.465 -0.059,0.04 -0.348,0.12 -0.348,0.119 v -0.159 c 0,0.001 0.223,-0.055 0.268,-0.089 0.041,-0.03 0.381,-0.336 0.381,-0.336 z" />
      </g>
      <g
         id="g4510"
         transform="matrix(56.248741,0,0,56.248741,148.73384,109.28063)"
         style="clip-rule:evenodd;fill-rule:evenodd;stroke-linejoin:round;stroke-miterlimit:2">
        <path
           id="path4508"
           style="fill-rule:nonzero"
           d="m 0.67529329,-1.0265578 c -0.0202094,-0.057909 -0.0432138,-0.1231001 -0.062994,-0.1782162 0.02539,-0.00323 0.0509021,-0.00653 0.0765215,-0.00989 -0.003815,0.060037 -0.008496,0.1258885 -0.0135275,0.188107 z m 0.12599282,-0.014859 c -0.0215743,-0.057783 -0.0465528,-0.1240949 -0.0676008,-0.1791877 0.0257583,-0.00344 0.0516454,-0.00696 0.0776498,-0.010547 -0.002691,0.060617 -0.006151,0.1269362 -0.0100489,0.1897351 z M 0.45494517,-1.081316 c -0.005386,0.026856 -0.0310561,0.11132397 -0.0394125,0.13642263 0.12299878,-0.0116597 0.24955919,-0.024724 0.37845254,-0.0398423 0,0 -0.0445908,0.17476428 -0.12103311,0.3566147 -0.0395318,0.0940431 -0.0835429,0.17869201 -0.13330913,0.2527464 -0.0477998,0.0711284 -0.0939813,0.12122802 -0.11502668,0.1350354 -0.04571,0.0304499 -0.19796276,0.0915749 -0.36307914,0.1425565 -0.16122323,0.04977953 -0.31601951,0.08377707 -0.31826321,0.08363252 0,0 0.0389346,-0.01482337 0.0949997,-0.03960924 0.0588484,-0.02601632 0.12539013,-0.05826598 0.1971424,-0.09846437 0.15186411,-0.0850801 0.25139158,-0.16302311 0.29740257,-0.19550732 0.0369425,-0.0256323 0.0887468,-0.10097595 0.13112422,-0.19011819 0.0422477,-0.0888695 0.0708687,-0.18063166 0.0837007,-0.23268702 -0.0778294,0.009756 -0.1547607,0.0188024 -0.23056976,0.0272767 -0.0306331,0.04268 -0.1121663,0.12562436 -0.19821667,0.20100721 -0.08420396,0.0737654 -0.16549807,0.13324722 -0.16681799,0.13327094 0,0 0.02588226,-0.0343368 0.06042506,-0.0887857 0.0367871,-0.0579866 0.07493648,-0.12551489 0.11559485,-0.20753209 0.0763239,-0.15396266 0.14489105,-0.32735182 0.15374856,-0.35762212 0.0571235,-0.00589 0.114927,-0.012012 0.1731375,-0.018395 z"
           inkscape:connector-curvature="0"
           inkscape:original-d="M 0.563,-0.711 0.496,-0.852 h 0.067 z m 0.106,0 -0.067,-0.141 H 0.669 Z M 0.366,-0.771 C 0.364,-0.753 0.349,-0.686 0.345,-0.67 h 0.321 c 0,0 -0.122,0.492 -0.164,0.533 -0.042,0.042 -0.381,0.2 -0.382,0.2 0,0 0.229,-0.249 0.268,-0.285 0.04,-0.036 0.081,-0.236 0.09,-0.309 l -0.193,0.007 c -0.038,0.058 -0.236,0.247 -0.237,0.247 0,0 0.154,-0.442 0.164,-0.494 z" />
      </g>
    </g>
    <g
       style="clip-rule:evenodd;fill-rule:evenodd;stroke-linejoin:round;stroke-miterlimit:2"
       transform="matrix(56.248741,0,0,56.248741,14.744498,188.97794)"
       id="g4514" />
    <g
       style="clip-rule:evenodd;fill-rule:evenodd;stroke-linejoin:round;stroke-miterlimit:2"
       transform="matrix(56.248741,0,0,56.248741,54.569146,188.97794)"
       id="g4518" />
    <g
       style="clip-rule:evenodd;fill-rule:evenodd;stroke-linejoin:round;stroke-miterlimit:2"
       transform="matrix(56.248741,0,0,56.248741,85.330078,188.97794)"
       id="g4522" />
    <g
       style="clip-rule:evenodd;fill-rule:evenodd;stroke-linejoin:round;stroke-miterlimit:2"
       transform="matrix(56.248741,0,0,56.248741,128.67015,188.97794)"
       id="g4526" />
    <g
       style="clip-rule:evenodd;fill-rule:evenodd;stroke-linejoin:round;stroke-miterlimit:2"
       transform="matrix(56.163223,3.1005364,-3.1005364,56.163223,157.36186,188.63525)"
       id="g4530"
       inkscape:path-effect="#path-effect4672">
      <path
         id="path4528"
         style="fill-rule:nonzero"
         d="M 0.95301003,-1.0274322 C 0.91523134,-1.0946146 0.8791613,-1.1574937 0.844666,-1.2108235 c 0.0226702,-0.00117 0.0452921,-0.00217 0.067858,-0.00297 0.012082,0.058539 0.0246403,0.1191833 0.0404858,0.1863596 z M 0.4369508,-0.92150316 C 0.31863708,-0.98301257 0.2019142,-1.0319917 0.08452486,-1.0649135 c 0.23453544,-0.024954 0.47621311,-0.049481 0.69933326,-0.058257 -0.0157092,-0.028721 -0.0310753,-0.055872 -0.0461852,-0.080875 0.0228423,-0.00169 0.0456341,-0.00324 0.0683652,-0.00461 0.0100316,0.05471 0.0205498,0.1117454 0.0341496,0.1754074 -0.0152084,-0.026057 -0.0301116,-0.05128 -0.0446579,-0.07523 0.002393,0.024123 0.005099,0.04878 0.008216,0.074063 0.003616,0.0612595 0.004269,0.34677482 -7.8167e-4,0.41338705 0.0533797,0.0578605 0.46372299,0.51800114 0.46372299,0.51800114 -0.055741,-0.0335762 -0.42412438,-0.31631377 -0.48246069,-0.37382535 -0.009984,0.056693 -0.30700339,0.2564238 -0.30814106,0.25627682 0,0 0.0551431,-0.0867247 0.0870362,-0.26862477 0.0303653,-0.1731862 0.0754629,-0.39132091 0.0764886,-0.44341772 -0.0669915,0.002882 -0.13474842,0.006706 -0.20265949,0.0111138 z m -0.72594831,0.13311608 c 0.16077139,-9.799e-4 0.32662608,-0.001106 0.48374797,0.001891 0.0250556,0.0605836 0.0513658,0.12079944 0.0802244,0.18255935 -0.15904125,-0.0101792 -0.32500218,-0.0168935 -0.48734663,-0.021913 -0.0277214,-0.0575483 -0.0511156,-0.10760096 -0.0766257,-0.1625377 z M -0.65792369,-0.8893281 c -0.1091982,0.004069 -0.21432426,0.007683 -0.32369105,0.0109965 0.0535609,0.085455 0.14173701,0.26151733 0.19221912,0.36803081 0.10784715,0.004117 0.21952296,0.008828 0.32771365,0.0138948 -0.0442982,-0.0907153 -0.15699087,-0.32134103 -0.19624172,-0.39292208 z m 0.44079319,0.53859452 c -0.22406256,-0.0175967 -0.47603861,-0.0345691 -0.69804105,-0.0474487 -0.046247,-0.13265461 -0.22929575,-0.49318201 -0.31324045,-0.56079438 0.23302414,-0.0117552 0.45094568,-0.0273034 0.68215222,-0.0472595 0.0312096,0.0440666 0.28393196,0.558656 0.32912928,0.65550262 z m -1.4954603,-0.42299078 c 0.1506875,-0.002892 0.3224019,-0.004545 0.4794842,-0.005983 0.024383,0.0422071 0.049856,0.0900122 0.073128,0.13568454 -0.1601674,-0.001593 -0.325894,-0.002313 -0.479105,-5.5783e-4 -0.022582,-0.0434452 -0.047947,-0.0886175 -0.073507,-0.12914384 z m -0.8784996,-0.16978989 c 0.058893,-0.001297 0.1197246,-0.002263 0.1811782,-0.003111 0.0356,0.007978 0.067154,0.0355028 0.096132,0.0743942 0.1319366,-0.003295 0.2743749,-0.004323 0.4159342,-0.004686 0.023911,0.025569 0.047291,0.056404 0.069707,0.0896724 -0.142315,0.008839 -0.2823007,0.0196205 -0.4118251,0.0349437 0.028135,0.0546327 0.054046,0.11645692 0.072353,0.17140168 0.00438,0.007579 0.5012343,0.0839426 0.5012343,0.0839426 -0.071288,0.006176 -0.6121731,0.0311171 -0.6242437,0.004182 -0.037192,-0.15436683 -0.1685072,-0.41888014 -0.3004707,-0.45074001 z"
         inkscape:path-effect="#path-effect4658"
         inkscape:original-d="M 0.774,-0.656 0.707,-0.797 h 0.067 z m -0.54,0.095 -0.281,-0.153 0.675,-0.012 -0.026,-0.071 h 0.067 l -0.007,0.141 -0.026,-0.058 -0.01,0.058 c -0.012,0.047 -0.106,0.258 -0.14,0.31 0.03,0.039 0.196,0.393 0.196,0.393 C 0.646,0.021 0.43,-0.187 0.399,-0.228 0.36,-0.179 -0.046,0.084 -0.047,0.084 c 0,0 0.448,-0.575 0.482,-0.657 z m -0.73187695,0.11699999 h 0.451 v 0.153 h -0.451 z M -0.78738437,-0.561 H -1.0823844 v 0.409 h 0.29500003 z m 0.16,0.562 H -1.2413844 v -0.715 h 0.61400003 z M -1.8152576,-0.44400001 h 0.451 v 0.153 h -0.451 z M -2.4722672,-0.797 h 0.182 l -0.033,0.19 0.405,0.015 0.001,0.128 -0.429,0.02 -0.026,0.201 c 0.002,0.025 0.465,0.134 0.465,0.134 -0.051,0.006 -0.632,0.032 -0.636,-0.043 z"
         inkscape:connector-curvature="0" />
    </g>
    <path
       style="fill:none;stroke:#000000;stroke-width:0.26458332px;stroke-linecap:butt;stroke-linejoin:miter;stroke-opacity:1"
       d="m -7.2270552,122.81683 c 0,0 133.0491152,-22.09004 111.6692552,-12.63681 -41.998386,18.56983 126.83712,-8.38307 126.83712,-8.38307"
       id="path4606"
       inkscape:connector-curvature="0"
       sodipodi:nodetypes="csc" />
    <path
       style="fill:none;stroke:#000000;stroke-width:0.26458332px;stroke-linecap:butt;stroke-linejoin:miter;stroke-opacity:1"
       d="m -7.2270552,122.81683 c 0,0 134.3635652,11.68209 112.3136352,3.91918 -43.314666,-15.24936 127.10499,-1.5006 127.10499,-1.5006"
       id="path4606-3"
       inkscape:connector-curvature="0"
       sodipodi:nodetypes="csc" />
  </g>
</svg>
